<svg width="621" height="495" viewBox="0 0 621 495" fill="none" xmlns="http://www.w3.org/2000/svg">
<path d="M620.933 469.667H16.1011V494.481H620.933V469.667Z" fill="#1C78C0"/>
<path opacity="0.5" d="M620.933 469.667H16.1011V494.481H620.933V469.667Z" fill="white"/>
<path d="M166.72 203.526C163.76 204.488 160.856 205.611 158.019 206.891C159.57 205.743 161.121 204.58 162.672 203.386C169.588 197.841 176.166 191.885 182.368 185.551C175.094 192.631 167.32 199.177 159.105 205.138C160.227 203.167 161.221 201.126 162.083 199.028C163.556 195.166 163.913 191.274 160.222 189.211C155.693 186.668 150.188 190.467 151.645 196.965C152.521 200.592 154.231 203.964 156.639 206.813C151.285 210.518 145.696 213.87 139.905 216.847L139.347 217.127C140.578 215.007 141.661 212.804 142.588 210.535C144.062 206.689 144.418 202.781 140.727 200.734C136.199 198.175 130.693 201.99 132.151 208.488C133.018 212.07 134.7 215.403 137.067 218.228C130.104 221.655 122.893 224.571 115.743 227.734L114.704 228.2C116.105 226.698 117.4 225.102 118.581 223.423C120.923 220.027 122.164 216.336 119.062 213.451C115.247 209.915 109.013 212.35 108.904 219.05C108.906 222.749 109.771 226.398 111.432 229.704C104.742 232.809 98.3822 236.581 92.4494 240.963L92.2633 241.118C93.0648 239.847 93.7948 238.532 94.45 237.179C96.2025 233.441 96.8539 229.595 93.3334 227.254C92.6158 226.756 91.7945 226.429 90.9316 226.296C90.0688 226.164 89.187 226.229 88.3532 226.488C87.5193 226.746 86.7553 227.191 86.1188 227.789C85.4824 228.386 84.9902 229.121 84.6797 229.937C84.211 229.206 83.5725 228.599 82.8187 228.169C79.2672 226.121 75.7778 228.339 72.8002 231.472C72.0247 232.294 71.2493 233.162 70.5825 234.046C72.8879 227.632 75.7903 221.448 79.2517 215.576C82.5363 217.025 86.0833 217.785 89.6734 217.809C96.7453 217.809 99.7384 211.916 96.2645 208.256C93.442 205.294 89.4718 206.426 85.7187 208.597C84.4779 209.317 83.2768 210.104 82.1208 210.954C85.7203 205.538 89.8056 200.462 94.326 195.787C97.236 198.19 100.625 199.945 104.267 200.936C111.137 202.626 115.464 197.648 112.967 193.259C110.951 189.692 106.764 189.832 102.654 191.026C100.697 191.623 98.7759 192.332 96.9004 193.15C98.7769 191.336 100.715 189.583 102.67 187.846C105.259 185.644 107.927 183.52 110.625 181.441C113.544 183.768 116.921 185.454 120.535 186.389C127.406 188.079 131.717 183.101 129.236 178.712C127.22 175.145 123.032 175.285 118.922 176.479C117.945 176.758 116.984 177.099 116.022 177.456C119.605 174.897 123.249 172.4 126.878 169.919L130.259 167.608C133.29 170.151 136.851 171.984 140.681 172.974C147.551 174.664 151.863 169.686 149.381 165.297C147.365 161.73 143.178 161.87 139.068 163.064C137.441 163.551 135.841 164.126 134.276 164.785V164.785C134.974 164.289 135.672 163.793 136.354 163.234C137.641 162.319 138.897 161.373 140.154 160.412C141.704 159.249 143.162 157.946 144.682 156.721C145.535 156.039 146.373 155.31 147.194 154.565C150.239 157.132 153.822 158.982 157.678 159.978C164.549 161.668 168.86 156.69 166.379 152.301C164.362 148.734 160.175 148.874 156.065 150.068C153.76 150.779 151.502 151.634 149.304 152.627V152.627C152.111 150.021 154.825 147.307 157.384 144.485L157.895 143.895C158.996 142.67 160.098 141.414 161.152 140.142C162.207 138.871 163.556 137.149 164.704 135.614C169.431 129.438 173.311 122.657 176.242 115.453C173.166 122.567 169.161 129.242 164.331 135.304C159.551 141.391 154.22 147.023 148.404 152.13L147.768 152.673C149.107 150.383 150.288 148.005 151.304 145.555C152.855 141.709 153.134 137.801 149.443 135.753C144.915 133.194 139.409 137.01 140.867 143.508C141.798 147.357 143.668 150.917 146.31 153.867L144.946 155.046L143.395 156.38C142.48 157.109 141.565 157.806 140.634 158.504L139.084 159.636C137.765 160.614 136.416 161.56 135.067 162.49L133.144 163.808L130.942 165.359C132.219 163.157 133.348 160.872 134.322 158.52C135.796 154.658 136.152 150.766 132.461 148.703C127.933 146.16 122.427 149.975 123.885 156.457C124.789 160.188 126.57 163.649 129.081 166.553L127.452 167.608L121.404 171.563L120.225 172.338L116.86 174.587L115.402 175.564C113.851 176.634 112.3 177.719 110.749 178.836C112.054 176.601 113.204 174.28 114.192 171.888C115.666 168.042 116.022 164.134 112.331 162.087C107.803 159.528 102.297 163.343 103.755 169.841C104.675 173.62 106.495 177.121 109.059 180.046C106.423 181.984 103.833 183.969 101.305 186.047C99.4593 187.598 97.6293 189.149 95.8613 190.824C96.6391 189.389 97.3279 187.908 97.9239 186.389C99.4748 182.527 99.754 178.634 96.0629 176.587C91.5344 174.028 86.0289 177.843 87.4867 184.342C88.36 187.921 90.0417 191.253 92.4029 194.081C87.3803 199.077 82.8515 204.546 78.8795 210.411C79.3329 208.718 79.6799 206.999 79.9186 205.263C80.4148 201.168 79.8255 197.322 75.7468 196.206C70.722 194.825 66.3021 199.85 69.2952 205.836C71.0213 209.129 73.4838 211.979 76.4912 214.164C72.6004 220.554 69.3387 227.306 66.7518 234.325C66.6986 232.86 66.5536 231.399 66.3176 229.952C65.6352 225.873 63.9758 222.353 59.742 222.43C54.5466 222.539 51.7396 228.634 56.2991 233.504C58.7472 236.045 61.7295 238.01 65.0304 239.257C63.2707 244.684 61.8311 250.209 60.719 255.805C60.5484 256.689 60.4089 257.573 60.2383 258.457C60.0522 258.627 59.8661 258.798 59.6955 258.984C59.5094 258.224 59.2923 257.433 59.0441 256.704C57.7414 252.796 55.5547 249.555 51.3984 250.299C46.2651 251.183 44.4196 257.619 49.6925 261.76C52.3806 263.801 55.4738 265.245 58.765 265.994L58.9511 266.444C58.3928 270.646 57.9585 274.88 57.6949 279.13C57.4933 282.231 57.3847 285.473 57.3227 288.652C52.8872 288.652 49.7545 293.521 52.8097 298.794C54.1018 300.979 55.7534 302.929 57.6949 304.564C58.0671 310.534 58.6564 316.505 59.4473 322.429C58.8194 321.851 58.0519 321.445 57.22 321.252C56.3881 321.059 55.5204 321.085 54.7017 321.328C51.9102 322.088 50.654 324.337 50.1888 327.097C49.2101 328.135 48.6567 329.502 48.6379 330.928C46.5598 327.826 44.6057 324.725 42.6982 321.437C45.6047 319.209 48.0135 316.399 49.77 313.186C53.1199 306.983 49.3513 301.539 44.4816 302.858C40.527 303.928 39.643 307.975 39.8291 312.302C39.8889 313.943 40.0442 315.58 40.2943 317.203C39.5965 316.009 38.9141 314.799 38.2472 313.605C36.5413 310.503 35.1455 307.402 33.4706 304.3C33.0674 303.54 32.7107 302.749 32.3695 301.974C35.6418 300.335 38.5323 298.026 40.8527 295.196C45.3036 289.706 42.6206 283.674 37.5959 284.061C33.5171 284.387 31.8887 288.186 31.2064 292.467C30.9207 294.331 30.7549 296.211 30.7101 298.096L29.2523 294.731C26.1521 287.095 23.5971 279.249 21.6066 271.251C25.3019 269.935 28.6597 267.816 31.439 265.048C36.4172 260.008 34.3546 253.758 29.3143 253.634C25.2201 253.541 23.2195 257.154 22.1029 261.388C21.5545 263.636 21.1402 265.914 20.8622 268.212C19.7921 263.559 18.8616 258.984 18.0862 254.331C17.5589 251.447 17.2177 248.516 16.8455 245.6C20.8252 244.812 24.5741 243.131 27.81 240.684C33.3931 236.342 32.1524 229.828 27.1741 229.099C23.1264 228.463 20.6761 231.798 19.0322 235.814C18.0637 238.347 17.2505 240.937 16.5973 243.569C16.2872 240.188 15.9305 236.791 15.7754 233.395C15.3334 226.381 15.3645 219.345 15.8684 212.334C15.1525 219.341 14.909 226.387 15.1395 233.426C15.1395 236.667 15.4187 239.893 15.6203 243.134C14.7307 240.932 13.6945 238.793 12.5186 236.729C10.3939 233.178 7.5869 230.526 3.66325 232.077C-1.14439 234.062 -1.56312 240.73 4.46969 243.646C8.02335 245.273 11.9191 246.013 15.8219 245.802C16.1011 248.686 16.3337 251.586 16.7834 254.456C17.3883 259.031 18.1637 263.574 19.0632 268.087C18.0819 266.355 16.9834 264.692 15.7754 263.109C13.2165 259.868 10.0683 257.573 6.47029 259.666C1.95731 262.256 2.40706 268.971 8.76555 271.034C12.372 272.157 16.1925 272.412 19.9162 271.778C21.6804 279.866 24.0072 287.821 26.8795 295.584L27.81 297.91C26.9891 296.824 26.1035 295.788 25.158 294.809C22.289 291.831 18.9546 289.861 15.4807 292.327C11.2469 295.351 12.379 301.943 18.9081 303.4C22.5282 304.137 26.2691 304.031 29.8416 303.09C30.1518 303.881 30.493 304.641 30.8807 305.447C32.4315 308.642 33.8118 311.915 35.4402 315.047L36.8515 317.73C36.0491 317.025 35.2105 316.363 34.3391 315.745C30.9582 313.372 27.2982 312.07 24.3671 315.125C20.7846 318.893 23.1109 325.159 29.8106 325.36C33.2382 325.451 36.645 324.8 39.7981 323.453C41.7056 326.927 43.6907 330.354 45.8309 333.719C46.6218 335.007 47.3817 336.278 48.2812 337.55C47.0641 336.408 45.7742 335.346 44.4196 334.371C41.0543 331.998 37.3787 330.695 34.4631 333.751C30.8652 337.519 33.207 343.784 39.9066 343.986C43.7356 344.03 47.5203 343.164 50.9487 341.458C52.0446 343.009 53.1922 344.56 54.3916 346.111C51.8947 349.011 52.7011 353.865 57.7724 356.083C60.2368 357.105 62.8612 357.688 65.5267 357.804L66.4882 358.533L66.6588 358.657C69.8602 370.637 73.6594 382.448 78.042 394.048C79.9134 399 81.8881 403.906 83.9663 408.765H65.3561V482.167H122.21V408.75H91.8291C89.2392 403.089 86.7578 397.366 84.4315 391.582C80.632 382.075 77.1891 372.444 74.1804 362.658C74.689 362.811 75.207 362.93 75.7313 363.015C76.4205 363.151 77.1263 363.183 77.8249 363.108L77.0185 358.006H76.9099H76.4757C76.1965 358.006 75.8243 357.866 75.4986 357.82C74.7861 357.618 74.0911 357.359 73.4205 357.044L72.6141 356.672C75.6028 355.63 78.3774 354.054 80.8026 352.02C86.1995 347.367 84.6642 341.008 79.6549 340.466C75.5762 340.016 73.2809 343.459 71.9007 347.538C71.4819 348.701 71.1408 349.91 70.8306 351.089C70.5514 350.003 70.2413 348.918 69.9776 347.832C69.1557 344.622 68.4268 341.381 67.6824 338.139C70.9229 337.108 73.9309 335.454 76.5377 333.27C81.9347 328.617 80.3993 322.274 75.3901 321.731C71.3113 321.282 69.0161 324.725 67.6358 328.803C67.2131 329.989 66.8508 331.195 66.5502 332.417C66.085 330.044 65.6197 327.687 65.2165 325.314C64.9063 323.546 64.6427 321.793 64.379 320.025C64.2705 317.513 64.2395 315.001 64.2705 312.473C64.2705 311.093 64.2705 309.712 64.3945 308.317C67.4325 309.29 70.6228 309.7 73.8082 309.526C80.8646 309.061 83.4855 303.013 79.7945 299.585C76.7858 296.778 72.8932 298.174 69.2797 300.562C67.6567 301.66 66.1029 302.856 64.6272 304.145C65.0563 298.242 65.9482 292.383 67.2946 286.62C68.0985 283.227 69.0926 279.883 70.2723 276.602C73.5138 277.724 76.9432 278.204 80.3683 278.013C87.4247 277.563 90.0456 271.515 86.3546 268.072C83.3459 265.28 79.4533 266.661 75.8398 269.065C74.5566 269.93 73.3194 270.862 72.1333 271.856C73.4901 268.645 75.0761 265.535 76.8789 262.551C80.4873 256.552 84.996 251.144 90.2472 246.515C92.945 249.014 96.1357 250.921 99.6144 252.114C106.33 254.316 111.013 249.663 108.919 245.104C107.183 241.397 103.042 241.227 98.8079 242.111C97.197 242.459 95.6073 242.899 94.0468 243.429L94.1399 243.336C99.9265 238.82 106.163 234.912 112.75 231.674C115.067 234.723 118.02 237.232 121.404 239.025C127.685 242.266 133.051 238.42 131.655 233.581C130.523 229.642 126.475 228.82 122.133 228.929C120.439 229.027 118.751 229.213 117.077 229.487C124.056 226.184 131.205 223.066 138.075 219.422L138.215 219.344C141.301 222.001 144.957 223.911 148.9 224.927C155.771 226.633 160.098 221.64 157.616 217.251C155.585 213.684 151.413 213.839 147.288 215.017C146.124 215.359 144.961 215.777 143.845 216.212C148.437 213.537 152.888 210.628 157.182 207.496L157.554 207.883C157.546 207.827 157.546 207.769 157.554 207.713C160.662 210.397 164.344 212.334 168.317 213.373C175.187 215.064 179.499 210.086 177.017 205.697C175.017 202.176 170.891 202.331 166.72 203.526ZM58.2842 344.048C56.8884 342.389 55.5547 340.683 54.2365 338.946C54.5622 338.667 54.9034 338.357 55.2445 338.015C57.1771 338.619 59.1778 338.979 61.1998 339.085C61.1998 339.194 61.1998 339.303 61.1998 339.411L62.1458 339.21C62.6266 341.66 63.1539 344.095 63.6967 346.53C63.0628 345.709 62.2391 345.054 61.2963 344.622C60.3535 344.189 59.3199 343.993 58.2842 344.048V344.048ZM63.3555 285.659C62.8747 287.473 62.456 289.319 62.0838 291.164C62.0137 291.046 61.9305 290.937 61.8357 290.838C61.8357 287.054 61.8977 283.281 62.0217 279.517C62.1303 276.881 62.3164 274.26 62.549 271.623C63.8183 272.93 65.2219 274.1 66.7363 275.113C65.4025 278.558 64.2736 282.08 63.3555 285.659V285.659ZM69.714 268.289C69.714 267.607 69.8691 266.909 69.9156 266.226C69.9156 265.87 69.9156 265.529 69.9156 265.187C70.4739 265.017 71.0322 264.815 71.606 264.583C70.9546 265.808 70.3188 267.033 69.714 268.289ZM77.7939 255.169C77.5187 254.559 77.1246 254.011 76.6346 253.555C76.1446 253.1 75.5686 252.747 74.9403 252.517C71.1252 250.966 68.008 253.758 65.5422 257.325L65.4336 257.495H65.1855C64.9254 257.436 64.6608 257.4 64.3945 257.387C64.3945 257.169 64.3946 256.952 64.5031 256.735C65.4872 251.14 66.8078 245.609 68.4578 240.172C72.018 240.621 75.6323 240.341 79.0811 239.35C81.1904 238.808 83.0376 237.533 84.292 235.752C84.9812 238.874 86.2775 241.83 88.1071 244.453C84.3029 247.67 80.8463 251.277 77.7939 255.215V255.169Z" fill="#1C78C0"/>
<path opacity="0.5" d="M166.72 203.526C163.76 204.488 160.856 205.611 158.019 206.891C159.57 205.743 161.121 204.58 162.672 203.386C169.588 197.841 176.166 191.885 182.368 185.551C175.094 192.631 167.32 199.177 159.105 205.138C160.227 203.167 161.221 201.126 162.083 199.028C163.556 195.166 163.913 191.274 160.222 189.211C155.693 186.668 150.188 190.467 151.645 196.965C152.521 200.592 154.231 203.964 156.639 206.813C151.285 210.518 145.696 213.87 139.905 216.847L139.347 217.127C140.578 215.007 141.661 212.804 142.588 210.535C144.062 206.689 144.418 202.781 140.727 200.734C136.199 198.175 130.693 201.99 132.151 208.488C133.018 212.07 134.7 215.403 137.067 218.228C130.104 221.655 122.893 224.571 115.743 227.734L114.704 228.2C116.105 226.698 117.4 225.102 118.581 223.423C120.923 220.027 122.164 216.336 119.062 213.451C115.247 209.915 109.013 212.35 108.904 219.05C108.906 222.749 109.771 226.398 111.432 229.704C104.742 232.809 98.3822 236.581 92.4494 240.963L92.2633 241.118C93.0648 239.847 93.7948 238.532 94.45 237.179C96.2025 233.441 96.8539 229.595 93.3334 227.254C92.6158 226.756 91.7945 226.429 90.9316 226.296C90.0688 226.164 89.187 226.229 88.3532 226.488C87.5193 226.746 86.7553 227.191 86.1188 227.789C85.4824 228.386 84.9902 229.121 84.6797 229.937C84.211 229.206 83.5725 228.599 82.8187 228.169C79.2672 226.121 75.7778 228.339 72.8002 231.472C72.0247 232.294 71.2493 233.162 70.5825 234.046C72.8879 227.632 75.7903 221.448 79.2517 215.576C82.5363 217.025 86.0833 217.785 89.6734 217.809C96.7453 217.809 99.7384 211.916 96.2645 208.256C93.442 205.294 89.4718 206.426 85.7187 208.597C84.4779 209.317 83.2768 210.104 82.1208 210.954C85.7203 205.538 89.8056 200.462 94.326 195.787C97.236 198.19 100.625 199.945 104.267 200.936C111.137 202.626 115.464 197.648 112.967 193.259C110.951 189.692 106.764 189.832 102.654 191.026C100.697 191.623 98.7759 192.332 96.9004 193.15C98.7769 191.336 100.715 189.583 102.67 187.846C105.259 185.644 107.927 183.52 110.625 181.441C113.544 183.768 116.921 185.454 120.535 186.389C127.406 188.079 131.717 183.101 129.236 178.712C127.22 175.145 123.032 175.285 118.922 176.479C117.945 176.758 116.984 177.099 116.022 177.456C119.605 174.897 123.249 172.4 126.878 169.919L130.259 167.608C133.29 170.151 136.851 171.984 140.681 172.974C147.551 174.664 151.863 169.686 149.381 165.297C147.365 161.73 143.178 161.87 139.068 163.064C137.441 163.551 135.841 164.126 134.276 164.785V164.785C134.974 164.289 135.672 163.793 136.354 163.234C137.641 162.319 138.897 161.373 140.154 160.412C141.704 159.249 143.162 157.946 144.682 156.721C145.535 156.039 146.373 155.31 147.194 154.565C150.239 157.132 153.822 158.982 157.678 159.978C164.549 161.668 168.86 156.69 166.379 152.301C164.362 148.734 160.175 148.874 156.065 150.068C153.76 150.779 151.502 151.634 149.304 152.627V152.627C152.111 150.021 154.825 147.307 157.384 144.485L157.895 143.895C158.996 142.67 160.098 141.414 161.152 140.142C162.207 138.871 163.556 137.149 164.704 135.614C169.431 129.438 173.311 122.657 176.242 115.453C173.166 122.567 169.161 129.242 164.331 135.304C159.551 141.391 154.22 147.023 148.404 152.13L147.768 152.673C149.107 150.383 150.288 148.005 151.304 145.555C152.855 141.709 153.134 137.801 149.443 135.753C144.915 133.194 139.409 137.01 140.867 143.508C141.798 147.357 143.668 150.917 146.31 153.867L144.946 155.046L143.395 156.38C142.48 157.109 141.565 157.806 140.634 158.504L139.084 159.636C137.765 160.614 136.416 161.56 135.067 162.49L133.144 163.808L130.942 165.359C132.219 163.157 133.348 160.872 134.322 158.52C135.796 154.658 136.152 150.766 132.461 148.703C127.933 146.16 122.427 149.975 123.885 156.457C124.789 160.188 126.57 163.649 129.081 166.553L127.452 167.608L121.404 171.563L120.225 172.338L116.86 174.587L115.402 175.564C113.851 176.634 112.3 177.719 110.749 178.836C112.054 176.601 113.204 174.28 114.192 171.888C115.666 168.042 116.022 164.134 112.331 162.087C107.803 159.528 102.297 163.343 103.755 169.841C104.675 173.62 106.495 177.121 109.059 180.046C106.423 181.984 103.833 183.969 101.305 186.047C99.4593 187.598 97.6293 189.149 95.8613 190.824C96.6391 189.389 97.3279 187.908 97.9239 186.389C99.4748 182.527 99.754 178.634 96.0629 176.587C91.5344 174.028 86.0289 177.843 87.4867 184.342C88.36 187.921 90.0417 191.253 92.4029 194.081C87.3803 199.077 82.8515 204.546 78.8795 210.411C79.3329 208.718 79.6799 206.999 79.9186 205.263C80.4148 201.168 79.8255 197.322 75.7468 196.206C70.722 194.825 66.3021 199.85 69.2952 205.836C71.0213 209.129 73.4838 211.979 76.4912 214.164C72.6004 220.554 69.3387 227.306 66.7518 234.325C66.6986 232.86 66.5536 231.399 66.3176 229.952C65.6352 225.873 63.9758 222.353 59.742 222.43C54.5466 222.539 51.7396 228.634 56.2991 233.504C58.7472 236.045 61.7295 238.01 65.0304 239.257C63.2707 244.684 61.8311 250.209 60.719 255.805C60.5484 256.689 60.4089 257.573 60.2383 258.457C60.0522 258.627 59.8661 258.798 59.6955 258.984C59.5094 258.224 59.2923 257.433 59.0441 256.704C57.7414 252.796 55.5547 249.555 51.3984 250.299C46.2651 251.183 44.4196 257.619 49.6925 261.76C52.3806 263.801 55.4738 265.245 58.765 265.994L58.9511 266.444C58.3928 270.646 57.9585 274.88 57.6949 279.13C57.4933 282.231 57.3847 285.473 57.3227 288.652C52.8872 288.652 49.7545 293.521 52.8097 298.794C54.1018 300.979 55.7534 302.929 57.6949 304.564C58.0671 310.534 58.6564 316.505 59.4473 322.429C58.8194 321.851 58.0519 321.445 57.22 321.252C56.3881 321.059 55.5204 321.085 54.7017 321.328C51.9102 322.088 50.654 324.337 50.1888 327.097C49.2101 328.135 48.6567 329.502 48.6379 330.928C46.5598 327.826 44.6057 324.725 42.6982 321.437C45.6047 319.209 48.0135 316.399 49.77 313.186C53.1199 306.983 49.3513 301.539 44.4816 302.858C40.527 303.928 39.643 307.975 39.8291 312.302C39.8889 313.943 40.0442 315.58 40.2943 317.203C39.5965 316.009 38.9141 314.799 38.2472 313.605C36.5413 310.503 35.1455 307.402 33.4706 304.3C33.0674 303.54 32.7107 302.749 32.3695 301.974C35.6418 300.335 38.5323 298.026 40.8527 295.196C45.3036 289.706 42.6206 283.674 37.5959 284.061C33.5171 284.387 31.8887 288.186 31.2064 292.467C30.9207 294.331 30.7549 296.211 30.7101 298.096L29.2523 294.731C26.1521 287.095 23.5971 279.249 21.6066 271.251C25.3019 269.935 28.6597 267.816 31.439 265.048C36.4172 260.008 34.3546 253.758 29.3143 253.634C25.2201 253.541 23.2195 257.154 22.1029 261.388C21.5545 263.636 21.1402 265.914 20.8622 268.212C19.7921 263.559 18.8616 258.984 18.0862 254.331C17.5589 251.447 17.2177 248.516 16.8455 245.6C20.8252 244.812 24.5741 243.131 27.81 240.684C33.3931 236.342 32.1524 229.828 27.1741 229.099C23.1264 228.463 20.6761 231.798 19.0322 235.814C18.0637 238.347 17.2505 240.937 16.5973 243.569C16.2872 240.188 15.9305 236.791 15.7754 233.395C15.3334 226.381 15.3645 219.345 15.8684 212.334C15.1525 219.341 14.909 226.387 15.1395 233.426C15.1395 236.667 15.4187 239.893 15.6203 243.134C14.7307 240.932 13.6945 238.793 12.5186 236.729C10.3939 233.178 7.5869 230.526 3.66325 232.077C-1.14439 234.062 -1.56312 240.73 4.46969 243.646C8.02335 245.273 11.9191 246.013 15.8219 245.802C16.1011 248.686 16.3337 251.586 16.7834 254.456C17.3883 259.031 18.1637 263.574 19.0632 268.087C18.0819 266.355 16.9834 264.692 15.7754 263.109C13.2165 259.868 10.0683 257.573 6.47029 259.666C1.95731 262.256 2.40706 268.971 8.76555 271.034C12.372 272.157 16.1925 272.412 19.9162 271.778C21.6804 279.866 24.0072 287.821 26.8795 295.584L27.81 297.91C26.9891 296.824 26.1035 295.788 25.158 294.809C22.289 291.831 18.9546 289.861 15.4807 292.327C11.2469 295.351 12.379 301.943 18.9081 303.4C22.5282 304.137 26.2691 304.031 29.8416 303.09C30.1518 303.881 30.493 304.641 30.8807 305.447C32.4315 308.642 33.8118 311.915 35.4402 315.047L36.8515 317.73C36.0491 317.025 35.2105 316.363 34.3391 315.745C30.9582 313.372 27.2982 312.07 24.3671 315.125C20.7846 318.893 23.1109 325.159 29.8106 325.36C33.2382 325.451 36.645 324.8 39.7981 323.453C41.7056 326.927 43.6907 330.354 45.8309 333.719C46.6218 335.007 47.3817 336.278 48.2812 337.55C47.0641 336.408 45.7742 335.346 44.4196 334.371C41.0543 331.998 37.3787 330.695 34.4631 333.751C30.8652 337.519 33.207 343.784 39.9066 343.986C43.7356 344.03 47.5203 343.164 50.9487 341.458C52.0446 343.009 53.1922 344.56 54.3916 346.111C51.8947 349.011 52.7011 353.865 57.7724 356.083C60.2368 357.105 62.8612 357.688 65.5267 357.804L66.4882 358.533L66.6588 358.657C69.8602 370.637 73.6594 382.448 78.042 394.048C79.9134 399 81.8881 403.906 83.9663 408.765H65.3561V482.167H122.21V408.75H91.8291C89.2392 403.089 86.7578 397.366 84.4315 391.582C80.632 382.075 77.1891 372.444 74.1804 362.658C74.689 362.811 75.207 362.93 75.7313 363.015C76.4205 363.151 77.1263 363.183 77.8249 363.108L77.0185 358.006H76.9099H76.4757C76.1965 358.006 75.8243 357.866 75.4986 357.82C74.7861 357.618 74.0911 357.359 73.4205 357.044L72.6141 356.672C75.6028 355.63 78.3774 354.054 80.8026 352.02C86.1995 347.367 84.6642 341.008 79.6549 340.466C75.5762 340.016 73.2809 343.459 71.9007 347.538C71.4819 348.701 71.1408 349.91 70.8306 351.089C70.5514 350.003 70.2413 348.918 69.9776 347.832C69.1557 344.622 68.4268 341.381 67.6824 338.139C70.9229 337.108 73.9309 335.454 76.5377 333.27C81.9347 328.617 80.3993 322.274 75.3901 321.731C71.3113 321.282 69.0161 324.725 67.6358 328.803C67.2131 329.989 66.8508 331.195 66.5502 332.417C66.085 330.044 65.6197 327.687 65.2165 325.314C64.9063 323.546 64.6427 321.793 64.379 320.025C64.2705 317.513 64.2395 315.001 64.2705 312.473C64.2705 311.093 64.2705 309.712 64.3945 308.317C67.4325 309.29 70.6228 309.7 73.8082 309.526C80.8646 309.061 83.4855 303.013 79.7945 299.585C76.7858 296.778 72.8932 298.174 69.2797 300.562C67.6567 301.66 66.1029 302.856 64.6272 304.145C65.0563 298.242 65.9482 292.383 67.2946 286.62C68.0985 283.227 69.0926 279.883 70.2723 276.602C73.5138 277.724 76.9432 278.204 80.3683 278.013C87.4247 277.563 90.0456 271.515 86.3546 268.072C83.3459 265.28 79.4533 266.661 75.8398 269.065C74.5566 269.93 73.3194 270.862 72.1333 271.856C73.4901 268.645 75.0761 265.535 76.8789 262.551C80.4873 256.552 84.996 251.144 90.2472 246.515C92.945 249.014 96.1357 250.921 99.6144 252.114C106.33 254.316 111.013 249.663 108.919 245.104C107.183 241.397 103.042 241.227 98.8079 242.111C97.197 242.459 95.6073 242.899 94.0468 243.429L94.1399 243.336C99.9265 238.82 106.163 234.912 112.75 231.674C115.067 234.723 118.02 237.232 121.404 239.025C127.685 242.266 133.051 238.42 131.655 233.581C130.523 229.642 126.475 228.82 122.133 228.929C120.439 229.027 118.751 229.213 117.077 229.487C124.056 226.184 131.205 223.066 138.075 219.422L138.215 219.344C141.301 222.001 144.957 223.911 148.9 224.927C155.771 226.633 160.098 221.64 157.616 217.251C155.585 213.684 151.413 213.839 147.288 215.017C146.124 215.359 144.961 215.777 143.845 216.212C148.437 213.537 152.888 210.628 157.182 207.496L157.554 207.883C157.546 207.827 157.546 207.769 157.554 207.713C160.662 210.397 164.344 212.334 168.317 213.373C175.187 215.064 179.499 210.086 177.017 205.697C175.017 202.176 170.891 202.331 166.72 203.526ZM58.2842 344.048C56.8884 342.389 55.5547 340.683 54.2365 338.946C54.5622 338.667 54.9034 338.357 55.2445 338.015C57.1771 338.619 59.1778 338.979 61.1998 339.085C61.1998 339.194 61.1998 339.303 61.1998 339.411L62.1458 339.21C62.6266 341.66 63.1539 344.095 63.6967 346.53C63.0628 345.709 62.2391 345.054 61.2963 344.622C60.3535 344.189 59.3199 343.993 58.2842 344.048V344.048ZM63.3555 285.659C62.8747 287.473 62.456 289.319 62.0838 291.164C62.0137 291.046 61.9305 290.937 61.8357 290.838C61.8357 287.054 61.8977 283.281 62.0217 279.517C62.1303 276.881 62.3164 274.26 62.549 271.623C63.8183 272.93 65.2219 274.1 66.7363 275.113C65.4025 278.558 64.2736 282.08 63.3555 285.659V285.659ZM69.714 268.289C69.714 267.607 69.8691 266.909 69.9156 266.226C69.9156 265.87 69.9156 265.529 69.9156 265.187C70.4739 265.017 71.0322 264.815 71.606 264.583C70.9546 265.808 70.3188 267.033 69.714 268.289ZM77.7939 255.169C77.5187 254.559 77.1246 254.011 76.6346 253.555C76.1446 253.1 75.5686 252.747 74.9403 252.517C71.1252 250.966 68.008 253.758 65.5422 257.325L65.4336 257.495H65.1855C64.9254 257.436 64.6608 257.4 64.3945 257.387C64.3945 257.169 64.3946 256.952 64.5031 256.735C65.4872 251.14 66.8078 245.609 68.4578 240.172C72.018 240.621 75.6323 240.341 79.0811 239.35C81.1904 238.808 83.0376 237.533 84.292 235.752C84.9812 238.874 86.2775 241.83 88.1071 244.453C84.3029 247.67 80.8463 251.277 77.7939 255.215V255.169Z" fill="white"/>
<path d="M607.564 485.253C607.564 488.975 522.392 491.984 417.337 491.984C312.283 491.984 227.094 488.975 227.094 485.253C227.094 481.531 312.267 478.538 417.337 478.538C522.407 478.538 607.564 481.547 607.564 485.253Z" fill="#1C78C0"/>
<path opacity="0.3" d="M607.564 485.253C607.564 488.975 522.392 491.984 417.337 491.984C312.283 491.984 227.094 488.975 227.094 485.253C227.094 481.531 312.267 478.538 417.337 478.538C522.407 478.538 607.564 481.547 607.564 485.253Z" fill="#2E353A"/>
<path d="M403.643 424.863C403.643 424.863 412.948 464.627 408.869 471.171C403.612 479.717 347.549 484.865 347.549 484.865H471.167C471.167 484.865 486.676 480.523 482.023 468.07C478.41 458.423 461.118 424.863 461.118 424.863H403.643Z" fill="white" stroke="#2E353A" stroke-linecap="round" stroke-linejoin="round"/>
<path d="M400.945 424.863C400.945 424.863 410.808 464.968 406.171 471.171C401.534 477.375 347.549 482.105 347.549 482.105H471.741C471.741 482.105 482.194 477.887 479.294 468.07C476.394 458.253 458.404 424.863 458.404 424.863H400.945Z" fill="white" stroke="#2E353A" stroke-linecap="round" stroke-linejoin="round"/>
<g style="mix-blend-mode:multiply">
<path d="M458.404 424.863H401.022C401.022 424.863 406.853 448.622 407.427 462.394H477.216C471.493 449.149 458.404 424.863 458.404 424.863Z" fill="#1C78C0"/>
</g>
<path d="M471.167 482.306H347.549V484.865H471.167V482.306Z" fill="white" stroke="#2E353A" stroke-linecap="round" stroke-linejoin="round"/>
<path d="M607.223 149.029H260.531C253.267 149.029 247.379 154.917 247.379 162.18V415.635C247.379 422.899 253.267 428.787 260.531 428.787H607.223C614.487 428.787 620.375 422.899 620.375 415.635V162.18C620.375 154.917 614.487 149.029 607.223 149.029Z" fill="#1C78C0" stroke="#2E353A" stroke-linecap="round" stroke-linejoin="round"/>
<path d="M598.43 149.029H251.737C244.474 149.029 238.586 154.917 238.586 162.18V415.635C238.586 422.899 244.474 428.787 251.737 428.787H598.43C605.693 428.787 611.581 422.899 611.581 415.635V162.18C611.581 154.917 605.693 149.029 598.43 149.029Z" fill="#2E353A" stroke="#2E353A" stroke-linecap="round" stroke-linejoin="round"/>
<path d="M238.586 385.285H611.581V415.604C611.581 419.092 610.196 422.437 607.729 424.904C605.263 427.37 601.918 428.756 598.43 428.756H251.737C248.249 428.756 244.904 427.37 242.438 424.904C239.972 422.437 238.586 419.092 238.586 415.604V385.285Z" fill="white" stroke="#2E353A" stroke-linecap="round" stroke-linejoin="round"/>
<path d="M592.831 166.429H257.351V364.07H592.831V166.429Z" fill="#1C78C0" stroke="#2E353A" stroke-linecap="round" stroke-linejoin="round"/>
<path d="M431.962 407.028C431.962 405.666 431.557 404.334 430.8 403.201C430.043 402.068 428.967 401.186 427.707 400.665C426.448 400.144 425.063 400.009 423.727 400.276C422.391 400.543 421.164 401.2 420.201 402.165C419.239 403.129 418.584 404.358 418.321 405.694C418.057 407.031 418.195 408.416 418.719 409.674C419.242 410.932 420.127 412.006 421.262 412.761C422.396 413.516 423.729 413.917 425.091 413.914C425.995 413.914 426.89 413.736 427.724 413.39C428.559 413.043 429.317 412.536 429.955 411.896C430.593 411.257 431.099 410.497 431.443 409.662C431.788 408.827 431.964 407.932 431.962 407.028V407.028Z" fill="#2E353A" stroke="#2E353A" stroke-linecap="round" stroke-linejoin="round"/>
<path d="M589.683 180.356H259.988V197.679H589.683V180.356Z" fill="#2E353A" stroke="#2E353A" stroke-linecap="round" stroke-linejoin="round"/>
<path d="M314.376 197.694L310.437 186.994H259.988V197.694V211.885V355.649H589.683V197.694H314.376Z" fill="white" stroke="#2E353A" stroke-linecap="round" stroke-linejoin="round"/>
<path d="M496.694 486.385C496.694 486.385 498.819 491.519 510.528 493.302C522.237 495.086 601.206 485.842 601.206 485.842C601.206 485.842 606.169 484.602 606.525 482.12C606.882 479.639 593.746 472.366 569.445 469.341C548.297 466.914 526.873 469.343 506.806 476.444C491.731 481.95 496.694 486.385 496.694 486.385Z" fill="white" stroke="#2E353A" stroke-linecap="round" stroke-linejoin="round"/>
<g style="mix-blend-mode:multiply">
<path d="M587.574 477.685C582.301 477.685 570.375 478.243 560.667 479.081C550.958 479.918 534.876 486.013 526.005 489.053C517.134 492.092 502.991 491.286 502.991 491.286C505.409 492.27 507.941 492.947 510.528 493.302C522.237 495.07 601.206 485.842 601.206 485.842C602.937 485.41 604.535 484.558 605.859 483.361C600.849 479.732 591.885 477.685 587.574 477.685Z" fill="#1C78C0"/>
</g>
<path d="M602.943 481.64C603.633 482.003 604.292 482.423 604.913 482.896" stroke="#2E353A" stroke-linecap="round" stroke-linejoin="round"/>
<path d="M505.394 492.061C513.623 492.306 521.819 490.92 529.51 487.983C545.823 481.561 563.159 478.13 580.688 477.856C590.877 477.778 597.112 479.174 600.849 480.585" stroke="#2E353A" stroke-linecap="round" stroke-linejoin="round"/>
<path d="M570.918 280.107H468.128V342.668H570.437" stroke="#2E353A" stroke-width="0.5" stroke-linecap="round" stroke-linejoin="round"/>
<path d="M468.593 297.941H571.383" stroke="#2E353A" stroke-width="0.5" stroke-linecap="round" stroke-linejoin="round"/>
<path d="M468.593 315.73H571.383" stroke="#2E353A" stroke-width="0.5" stroke-linecap="round" stroke-linejoin="round"/>
<path d="M468.593 333.518H571.383" stroke="#2E353A" stroke-width="0.5" stroke-linecap="round" stroke-linejoin="round"/>
<path d="M465.305 280.525H461.087" stroke="#2E353A" stroke-width="0.5" stroke-linecap="round" stroke-linejoin="round"/>
<path d="M465.305 289.334H461.087" stroke="#2E353A" stroke-width="0.5" stroke-linecap="round" stroke-linejoin="round"/>
<path d="M465.305 298.159H461.087" stroke="#2E353A" stroke-width="0.5" stroke-linecap="round" stroke-linejoin="round"/>
<path d="M465.305 306.983H461.087" stroke="#2E353A" stroke-width="0.5" stroke-linecap="round" stroke-linejoin="round"/>
<path d="M465.305 315.792H461.087" stroke="#2E353A" stroke-width="0.5" stroke-linecap="round" stroke-linejoin="round"/>
<path d="M465.305 324.616H461.087" stroke="#2E353A" stroke-width="0.5" stroke-linecap="round" stroke-linejoin="round"/>
<path d="M465.305 333.44H461.087" stroke="#2E353A" stroke-width="0.5" stroke-linecap="round" stroke-linejoin="round"/>
<path d="M465.305 342.249H461.087" stroke="#2E353A" stroke-width="0.5" stroke-linecap="round" stroke-linejoin="round"/>
<path d="M476.595 305.153H471.865V342.42H476.595V305.153Z" fill="#2E353A" stroke="#2E353A" stroke-linecap="round" stroke-linejoin="round"/>
<path d="M484.985 287.318H480.255V342.42H484.985V287.318Z" fill="#1C78C0" stroke="#2E353A" stroke-linecap="round" stroke-linejoin="round"/>
<path d="M493.391 305.153H488.661V342.42H493.391V305.153Z" fill="white" stroke="#2E353A" stroke-linecap="round" stroke-linejoin="round"/>
<path d="M512.28 293.087H507.55V342.42H512.28V293.087Z" fill="#2E353A" stroke="#2E353A" stroke-linecap="round" stroke-linejoin="round"/>
<path d="M520.67 300.438H515.94V342.42H520.67V300.438Z" fill="#1C78C0" stroke="#2E353A" stroke-linecap="round" stroke-linejoin="round"/>
<path d="M529.076 321.421H524.346V342.42H529.076V321.421Z" fill="white" stroke="#2E353A" stroke-linecap="round" stroke-linejoin="round"/>
<path d="M547.965 305.153H543.235V342.42H547.965V305.153Z" fill="#2E353A" stroke="#2E353A" stroke-linecap="round" stroke-linejoin="round"/>
<path d="M556.355 287.318H551.625V342.42H556.355V287.318Z" fill="#1C78C0" stroke="#2E353A" stroke-linecap="round" stroke-linejoin="round"/>
<path d="M564.761 305.153H560.031V342.42H564.761V305.153Z" fill="white" stroke="#2E353A" stroke-linecap="round" stroke-linejoin="round"/>
<path opacity="0.4" d="M438.289 221.221L490.739 260.473V205.666L438.289 1V221.221Z" fill="#1C78C0" stroke="white" stroke-linecap="round" stroke-linejoin="round"/>
<path opacity="0.4" d="M490.739 260.473H320.145L43.334 221.221H438.289L490.739 260.473Z" fill="#1C78C0" stroke="white" stroke-linecap="round" stroke-linejoin="round"/>
<path d="M438.289 1H43.334V199.509H438.289V1Z" fill="black" stroke="#2E353A" stroke-linecap="round" stroke-linejoin="round"/>
<path d="M58.5634 11.2977H134.043" stroke="white" stroke-width="2" stroke-linecap="round" stroke-linejoin="round"/>
<path d="M428.24 10.3671C428.24 9.34201 427.935 8.33992 427.366 7.48777C426.796 6.63562 425.986 5.97171 425.038 5.58012C424.091 5.18853 423.049 5.08686 422.044 5.28799C421.038 5.48911 420.115 5.984 419.392 6.70997C418.668 7.43593 418.176 8.36033 417.978 9.36614C417.78 10.372 417.884 11.4139 418.279 12.3601C418.673 13.3064 419.34 14.1143 420.193 14.6816C421.047 15.2489 422.05 15.5501 423.075 15.547C423.755 15.547 424.428 15.4129 425.055 15.1524C425.683 14.8919 426.253 14.5101 426.733 14.0289C427.212 13.5477 427.592 12.9766 427.851 12.3482C428.11 11.7199 428.242 11.0466 428.24 10.3671V10.3671Z" fill="white"/>
<path d="M406.109 10.3672C406.106 9.34641 405.8 8.34946 405.231 7.50223C404.662 6.655 403.854 5.9955 402.91 5.607C401.966 5.2185 400.928 5.11844 399.928 5.31946C398.927 5.52047 398.008 6.01354 397.288 6.7364C396.567 7.45926 396.077 8.37947 395.879 9.38083C395.68 10.3822 395.784 11.4198 396.175 12.3625C396.566 13.3053 397.228 14.1109 398.077 14.6777C398.926 15.2445 399.924 15.547 400.945 15.547C401.624 15.547 402.297 15.4129 402.925 15.1524C403.552 14.8919 404.122 14.5101 404.602 14.0289C405.082 13.5477 405.462 12.9766 405.72 12.3482C405.979 11.7199 406.111 11.0466 406.109 10.3672V10.3672Z" fill="white"/>
<path d="M438.289 22.7119H43.334V221.221H438.289V22.7119Z" fill="white" stroke="#2E353A" stroke-linecap="round" stroke-linejoin="round"/>
<path d="M419.679 43.4003H71.2493V202.611H418.64" stroke="#2E353A" stroke-width="0.5" stroke-linecap="round" stroke-linejoin="round"/>
<path d="M72.2884 88.7781H420.702" stroke="#2E353A" stroke-width="0.5" stroke-linecap="round" stroke-linejoin="round"/>
<path d="M72.2884 134.063H420.702" stroke="#2E353A" stroke-width="0.5" stroke-linecap="round" stroke-linejoin="round"/>
<path d="M72.2884 179.348H420.702" stroke="#2E353A" stroke-width="0.5" stroke-linecap="round" stroke-linejoin="round"/>
<path d="M65.0459 44.4238H55.7408" stroke="#2E353A" stroke-width="0.5" stroke-linecap="round" stroke-linejoin="round"/>
<path d="M65.0459 66.8801H55.7408" stroke="#2E353A" stroke-width="0.5" stroke-linecap="round" stroke-linejoin="round"/>
<path d="M65.0459 89.3364H55.7408" stroke="#2E353A" stroke-width="0.5" stroke-linecap="round" stroke-linejoin="round"/>
<path d="M65.0459 111.777H55.7408" stroke="#2E353A" stroke-width="0.5" stroke-linecap="round" stroke-linejoin="round"/>
<path d="M65.0459 134.234H55.7408" stroke="#2E353A" stroke-width="0.5" stroke-linecap="round" stroke-linejoin="round"/>
<path d="M65.0459 156.674H55.7408" stroke="#2E353A" stroke-width="0.5" stroke-linecap="round" stroke-linejoin="round"/>
<path d="M65.0459 179.131H55.7408" stroke="#2E353A" stroke-width="0.5" stroke-linecap="round" stroke-linejoin="round"/>
<path d="M65.0459 201.587H55.7408" stroke="#2E353A" stroke-width="0.5" stroke-linecap="round" stroke-linejoin="round"/>
<path d="M73.8392 89.6156C73.8392 89.6156 104.329 90.9493 110.532 86.824C116.736 82.6988 125.017 74.4172 130.182 75.4408C135.781 76.8891 141.304 78.6179 146.729 80.6206C146.729 80.6206 159.136 73.3782 162.238 73.3782C165.339 73.3782 175.668 78.5425 183.95 78.5425H207.724L217.029 85.785L234.6 80.6206L254.25 88.8867L266.656 86.824L284.228 96.1292H292.509L309.041 103.356H330.753L343.16 110.599L362.809 111.638L378.318 127.146L390.725 125.068L404.17 130.248L416.577 129.209" stroke="#1C78C0" stroke-width="3" stroke-linecap="round" stroke-linejoin="round"/>
<path d="M73.312 95.0901H111.571L134.322 98.1918L152.933 99.2309L169.465 110.599L193.255 103.356L222.194 113.7L254.25 108.536L265.617 113.7L291.47 84.7459H317.323L332.831 68.2138L349.363 75.4408L359.708 66.1357L373.153 73.3782L381.419 63.034L386.584 64.0731L400.03 59.9323L406.233 64.0731L416.577 62.0104" stroke="#2E353A" stroke-width="3" stroke-linecap="round" stroke-linejoin="round"/>
<path d="M74.351 196.407H114.673L145.69 178.836L168.441 189.18H184.973L193.255 192.282L211.865 182.977L236.679 167.468L244.945 178.836L260.453 176.773L268.719 178.836L289.407 179.875L312.143 161.265L323.526 174.695L337.996 173.672L346.262 178.836L358.668 175.734L375.216 181.938L397.967 178.836L410.374 180.899L417.601 178.836" stroke="#1C78C0" stroke-width="3" stroke-linecap="round" stroke-linejoin="round"/>
<path opacity="0.4" d="M321.184 235.706L413.196 274.942V344.219L321.184 444.543V235.706Z" fill="#1C78C0" stroke="white" stroke-linecap="round" stroke-linejoin="round"/>
<path d="M321.184 235.706H117.775V434.215H321.184V235.706Z" fill="black" stroke="#2E353A" stroke-linecap="round" stroke-linejoin="round"/>
<path d="M321.184 257.418H117.775V444.559H321.184V257.418Z" fill="white" stroke="#2E353A" stroke-linecap="round" stroke-linejoin="round"/>
<path d="M218.022 350.221L137.378 350.143C137.24 339.3 139.362 328.548 143.607 318.57C147.852 308.592 154.129 299.607 162.036 292.188L218.022 350.221Z" fill="black" stroke="white" stroke-miterlimit="10"/>
<path d="M218.022 350.221L197.085 428.058C179.869 423.598 164.64 413.503 153.828 399.382C143.015 385.261 137.24 367.927 137.424 350.143L218.022 350.221Z" fill="black" stroke="white" stroke-miterlimit="10"/>
<path d="M221.635 352.485L259.554 281.347C276.977 290.698 290.359 306.124 297.154 324.694C303.949 343.264 303.684 363.683 296.41 382.071C289.136 400.459 275.36 415.533 257.7 424.429C240.04 433.325 219.727 435.422 200.621 430.322L221.635 352.485Z" fill="#1C78C0" stroke="white" stroke-miterlimit="10"/>
<path d="M218.022 350.221L213.881 269.716C228.502 268.739 243.096 271.968 255.94 279.021L218.022 350.221Z" fill="black" stroke="white" stroke-miterlimit="10"/>
<path d="M218.022 350.221L162.083 292.188C175.847 278.36 194.379 270.32 213.881 269.716L218.022 350.221Z" fill="black" stroke="white" stroke-miterlimit="10"/>
<path d="M312.903 247.027C312.903 246.006 312.6 245.007 312.033 244.158C311.465 243.309 310.659 242.647 309.715 242.256C308.771 241.865 307.733 241.763 306.731 241.962C305.729 242.161 304.809 242.653 304.087 243.375C303.365 244.097 302.873 245.018 302.673 246.019C302.474 247.021 302.576 248.06 302.967 249.003C303.358 249.947 304.02 250.753 304.869 251.321C305.719 251.888 306.717 252.191 307.739 252.191C308.417 252.191 309.088 252.058 309.715 251.798C310.341 251.539 310.911 251.158 311.39 250.679C311.87 250.199 312.25 249.63 312.51 249.003C312.769 248.377 312.903 247.705 312.903 247.027V247.027Z" fill="white"/>
<path d="M290.788 247.027C290.791 246.002 290.49 244.999 289.922 244.145C289.355 243.291 288.547 242.625 287.601 242.23C286.655 241.836 285.613 241.731 284.607 241.929C283.601 242.127 282.677 242.619 281.951 243.343C281.225 244.067 280.73 244.99 280.529 245.995C280.328 247 280.429 248.043 280.821 248.99C281.212 249.937 281.876 250.747 282.729 251.317C283.581 251.887 284.583 252.191 285.608 252.191C286.979 252.191 288.294 251.648 289.265 250.68C290.236 249.712 290.784 248.398 290.788 247.027Z" fill="white"/>
<g style="mix-blend-mode:multiply" opacity="0.73">
<path d="M321.184 257.418H117.775V281.409H321.184V257.418Z" fill="#1C78C0"/>
<path d="M321.184 257.418H117.775V281.409H321.184V257.418Z" stroke="white" stroke-linecap="round" stroke-linejoin="round"/>
</g>
</svg>
